<mxfile host="app.diagrams.net" modified="2024-07-21T05:36:34.312Z" agent="Mozilla/5.0 (Windows NT 10.0; Win64; x64) AppleWebKit/537.36 (KHTML, like Gecko) Chrome/126.0.0.0 Safari/537.36" etag="Gv-P_tkK4H5Da-Qq-ekQ" version="24.0.1" type="github">
  <diagram name="Page-1" id="edf60f1a-56cd-e834-aa8a-f176f3a09ee4">
    <mxGraphModel dx="1302" dy="1313" grid="1" gridSize="10" guides="1" tooltips="1" connect="1" arrows="1" fold="1" page="1" pageScale="1" pageWidth="1100" pageHeight="850" background="none" math="0" shadow="0">
      <root>
        <mxCell id="0" />
        <mxCell id="1" parent="0" />
        <mxCell id="QemC3yK7KwyKk4jSUFD0-35" style="edgeStyle=orthogonalEdgeStyle;rounded=0;orthogonalLoop=1;jettySize=auto;html=1;" edge="1" parent="1" source="60e70716793133e9-5">
          <mxGeometry relative="1" as="geometry">
            <mxPoint x="910" y="400" as="targetPoint" />
          </mxGeometry>
        </mxCell>
        <mxCell id="QemC3yK7KwyKk4jSUFD0-36" value="GIT INIT" style="edgeLabel;html=1;align=center;verticalAlign=middle;resizable=0;points=[];" vertex="1" connectable="0" parent="QemC3yK7KwyKk4jSUFD0-35">
          <mxGeometry x="0.4071" y="1" relative="1" as="geometry">
            <mxPoint as="offset" />
          </mxGeometry>
        </mxCell>
        <mxCell id="QemC3yK7KwyKk4jSUFD0-39" value="SI" style="edgeLabel;html=1;align=center;verticalAlign=middle;resizable=0;points=[];" vertex="1" connectable="0" parent="QemC3yK7KwyKk4jSUFD0-35">
          <mxGeometry x="-0.3947" y="-3" relative="1" as="geometry">
            <mxPoint as="offset" />
          </mxGeometry>
        </mxCell>
        <mxCell id="QemC3yK7KwyKk4jSUFD0-41" style="edgeStyle=orthogonalEdgeStyle;rounded=0;orthogonalLoop=1;jettySize=auto;html=1;entryX=1;entryY=0.5;entryDx=0;entryDy=0;" edge="1" parent="1" source="60e70716793133e9-5" target="QemC3yK7KwyKk4jSUFD0-28">
          <mxGeometry relative="1" as="geometry" />
        </mxCell>
        <mxCell id="QemC3yK7KwyKk4jSUFD0-42" value="NO" style="edgeLabel;html=1;align=center;verticalAlign=middle;resizable=0;points=[];" vertex="1" connectable="0" parent="QemC3yK7KwyKk4jSUFD0-41">
          <mxGeometry x="-0.0762" y="2" relative="1" as="geometry">
            <mxPoint as="offset" />
          </mxGeometry>
        </mxCell>
        <mxCell id="QemC3yK7KwyKk4jSUFD0-80" style="edgeStyle=orthogonalEdgeStyle;rounded=0;orthogonalLoop=1;jettySize=auto;html=1;exitX=1;exitY=0.5;exitDx=0;exitDy=0;entryX=0.25;entryY=0;entryDx=0;entryDy=0;" edge="1" parent="1" source="60e70716793133e9-5" target="QemC3yK7KwyKk4jSUFD0-49">
          <mxGeometry relative="1" as="geometry">
            <Array as="points">
              <mxPoint x="960" y="530" />
              <mxPoint x="960" y="399" />
              <mxPoint x="1073" y="399" />
            </Array>
          </mxGeometry>
        </mxCell>
        <mxCell id="60e70716793133e9-5" value="&lt;font style=&quot;font-size: 6px;&quot;&gt;USA GIT PARA LA CREACION DE VERSIONES&lt;/font&gt;" style="rhombus;whiteSpace=wrap;html=1;rounded=0;shadow=1;labelBackgroundColor=none;strokeWidth=1;fontFamily=Verdana;fontSize=8;align=center;" parent="1" vertex="1">
          <mxGeometry x="870" y="490" width="80" height="80" as="geometry" />
        </mxCell>
        <mxCell id="QemC3yK7KwyKk4jSUFD0-43" style="edgeStyle=orthogonalEdgeStyle;rounded=0;orthogonalLoop=1;jettySize=auto;html=1;" edge="1" parent="1" source="60e70716793133e9-8" target="60e70716793133e9-13">
          <mxGeometry relative="1" as="geometry" />
        </mxCell>
        <mxCell id="60e70716793133e9-8" value="Creacion del proyecto" style="rounded=1;whiteSpace=wrap;html=1;shadow=1;labelBackgroundColor=none;strokeWidth=1;fontFamily=Verdana;fontSize=8;align=center;" parent="1" vertex="1">
          <mxGeometry x="860" y="357.5" width="100" height="40" as="geometry" />
        </mxCell>
        <mxCell id="QemC3yK7KwyKk4jSUFD0-77" style="edgeStyle=orthogonalEdgeStyle;rounded=0;orthogonalLoop=1;jettySize=auto;html=1;exitX=0;exitY=0.75;exitDx=0;exitDy=0;entryX=0.5;entryY=0;entryDx=0;entryDy=0;" edge="1" parent="1" source="60e70716793133e9-13" target="QemC3yK7KwyKk4jSUFD0-49">
          <mxGeometry relative="1" as="geometry" />
        </mxCell>
        <mxCell id="60e70716793133e9-13" value="&lt;font style=&quot;font-size: 10px;&quot;&gt;INICIA REPOCITORIO, CONTROLADOR DE VERSIONES&lt;/font&gt;" style="whiteSpace=wrap;html=1;rounded=0;shadow=1;labelBackgroundColor=none;strokeWidth=1;fontFamily=Verdana;fontSize=8;align=center;fillColor=#FFFF33;" parent="1" vertex="1">
          <mxGeometry x="1243.33" y="336.25" width="200" height="82.5" as="geometry" />
        </mxCell>
        <mxCell id="QemC3yK7KwyKk4jSUFD0-1" value="Enunciado 1 Una pequeña empresa de consultoría en tecnología desea mejorar su infraestructura de sistemas de información para brindar un mejor servicio a sus clientes. Actualmente, la empresa utiliza sistemas de escritorio independientes para el trabajo diario y la colaboración, pero estos sistemas no están conectados y no comparten información de manera eficiente. La empresa desea implementar una infraestructura de sistemas de información que permita una colaboración más efectiva entre los miembros del equipo, así como un acceso más fácil y seguro a los datos y aplicaciones críticas. Indicar: Para lograr estos objetivos, ¿Qué debería hacer la empresa?. Describa hasta 3 acciones que permitan el cumplimiento de los objetivos." style="text;whiteSpace=wrap;" vertex="1" parent="1">
          <mxGeometry x="40" y="50" width="680" height="130" as="geometry" />
        </mxCell>
        <mxCell id="QemC3yK7KwyKk4jSUFD0-2" value="ANTES DEL SISTEMA" style="rounded=1;whiteSpace=wrap;html=1;fillColor=#C7FFCD;" vertex="1" parent="1">
          <mxGeometry x="70" y="240" width="320" height="60" as="geometry" />
        </mxCell>
        <mxCell id="QemC3yK7KwyKk4jSUFD0-3" value="CON EL SISTEMA" style="rounded=1;whiteSpace=wrap;html=1;fillColor=#99FF99;" vertex="1" parent="1">
          <mxGeometry x="660" y="240" width="320" height="60" as="geometry" />
        </mxCell>
        <mxCell id="QemC3yK7KwyKk4jSUFD0-8" value="" style="edgeStyle=orthogonalEdgeStyle;rounded=0;orthogonalLoop=1;jettySize=auto;html=1;" edge="1" parent="1" source="QemC3yK7KwyKk4jSUFD0-6" target="QemC3yK7KwyKk4jSUFD0-7">
          <mxGeometry relative="1" as="geometry" />
        </mxCell>
        <mxCell id="QemC3yK7KwyKk4jSUFD0-6" value="COLABORADOR 1" style="shape=umlActor;verticalLabelPosition=bottom;verticalAlign=top;html=1;outlineConnect=0;" vertex="1" parent="1">
          <mxGeometry x="40" y="365" width="30" height="60" as="geometry" />
        </mxCell>
        <mxCell id="QemC3yK7KwyKk4jSUFD0-15" style="edgeStyle=orthogonalEdgeStyle;rounded=0;orthogonalLoop=1;jettySize=auto;html=1;entryX=0.5;entryY=0;entryDx=0;entryDy=0;" edge="1" parent="1" source="QemC3yK7KwyKk4jSUFD0-7" target="QemC3yK7KwyKk4jSUFD0-11">
          <mxGeometry relative="1" as="geometry" />
        </mxCell>
        <mxCell id="QemC3yK7KwyKk4jSUFD0-7" value="Tarea culminada, transferencia por usb o correo&amp;nbsp;" style="whiteSpace=wrap;html=1;verticalAlign=top;" vertex="1" parent="1">
          <mxGeometry x="150" y="365" width="120" height="60" as="geometry" />
        </mxCell>
        <mxCell id="QemC3yK7KwyKk4jSUFD0-9" value="" style="edgeStyle=orthogonalEdgeStyle;rounded=0;orthogonalLoop=1;jettySize=auto;html=1;" edge="1" parent="1" source="QemC3yK7KwyKk4jSUFD0-10">
          <mxGeometry relative="1" as="geometry">
            <mxPoint x="150" y="510" as="targetPoint" />
          </mxGeometry>
        </mxCell>
        <mxCell id="QemC3yK7KwyKk4jSUFD0-10" value="COLABORADOR 2" style="shape=umlActor;verticalLabelPosition=bottom;verticalAlign=top;html=1;outlineConnect=0;" vertex="1" parent="1">
          <mxGeometry x="40" y="480" width="30" height="60" as="geometry" />
        </mxCell>
        <mxCell id="QemC3yK7KwyKk4jSUFD0-19" value="" style="edgeStyle=orthogonalEdgeStyle;rounded=0;orthogonalLoop=1;jettySize=auto;html=1;" edge="1" parent="1" source="QemC3yK7KwyKk4jSUFD0-11" target="QemC3yK7KwyKk4jSUFD0-20">
          <mxGeometry relative="1" as="geometry">
            <mxPoint x="210" y="610" as="targetPoint" />
          </mxGeometry>
        </mxCell>
        <mxCell id="QemC3yK7KwyKk4jSUFD0-11" value="Tarea culminada, transferencia por usb o correo" style="whiteSpace=wrap;html=1;verticalAlign=top;" vertex="1" parent="1">
          <mxGeometry x="150" y="480" width="120" height="60" as="geometry" />
        </mxCell>
        <mxCell id="QemC3yK7KwyKk4jSUFD0-12" value="" style="edgeStyle=orthogonalEdgeStyle;rounded=0;orthogonalLoop=1;jettySize=auto;html=1;entryX=0;entryY=0.5;entryDx=0;entryDy=0;" edge="1" parent="1" source="QemC3yK7KwyKk4jSUFD0-13" target="QemC3yK7KwyKk4jSUFD0-20">
          <mxGeometry relative="1" as="geometry">
            <mxPoint x="150" y="640" as="targetPoint" />
          </mxGeometry>
        </mxCell>
        <mxCell id="QemC3yK7KwyKk4jSUFD0-13" value="COLABORADOR 3" style="shape=umlActor;verticalLabelPosition=bottom;verticalAlign=top;html=1;outlineConnect=0;" vertex="1" parent="1">
          <mxGeometry x="40" y="610" width="30" height="60" as="geometry" />
        </mxCell>
        <mxCell id="QemC3yK7KwyKk4jSUFD0-18" value="" style="edgeStyle=orthogonalEdgeStyle;rounded=0;orthogonalLoop=1;jettySize=auto;html=1;" edge="1" parent="1" target="QemC3yK7KwyKk4jSUFD0-17">
          <mxGeometry relative="1" as="geometry">
            <mxPoint x="210" y="670" as="sourcePoint" />
          </mxGeometry>
        </mxCell>
        <mxCell id="QemC3yK7KwyKk4jSUFD0-22" value="no" style="edgeLabel;html=1;align=center;verticalAlign=middle;resizable=0;points=[];" vertex="1" connectable="0" parent="QemC3yK7KwyKk4jSUFD0-18">
          <mxGeometry x="-0.2219" y="2" relative="1" as="geometry">
            <mxPoint as="offset" />
          </mxGeometry>
        </mxCell>
        <mxCell id="QemC3yK7KwyKk4jSUFD0-17" value="&lt;div&gt;&lt;br&gt;&lt;/div&gt;&lt;div&gt;en la web&lt;/div&gt;" style="ellipse;whiteSpace=wrap;html=1;verticalAlign=top;" vertex="1" parent="1">
          <mxGeometry x="170" y="730" width="80" height="80" as="geometry" />
        </mxCell>
        <mxCell id="QemC3yK7KwyKk4jSUFD0-21" style="edgeStyle=orthogonalEdgeStyle;rounded=0;orthogonalLoop=1;jettySize=auto;html=1;entryX=1;entryY=0.25;entryDx=0;entryDy=0;" edge="1" parent="1" source="QemC3yK7KwyKk4jSUFD0-20" target="QemC3yK7KwyKk4jSUFD0-7">
          <mxGeometry relative="1" as="geometry">
            <Array as="points">
              <mxPoint x="330" y="640" />
              <mxPoint x="330" y="380" />
            </Array>
          </mxGeometry>
        </mxCell>
        <mxCell id="QemC3yK7KwyKk4jSUFD0-23" value="si" style="edgeLabel;html=1;align=center;verticalAlign=middle;resizable=0;points=[];" vertex="1" connectable="0" parent="QemC3yK7KwyKk4jSUFD0-21">
          <mxGeometry x="-0.7975" relative="1" as="geometry">
            <mxPoint y="-2" as="offset" />
          </mxGeometry>
        </mxCell>
        <mxCell id="QemC3yK7KwyKk4jSUFD0-24" value="regresa&amp;nbsp;" style="edgeLabel;html=1;align=center;verticalAlign=middle;resizable=0;points=[];" vertex="1" connectable="0" parent="QemC3yK7KwyKk4jSUFD0-21">
          <mxGeometry x="0.1475" y="3" relative="1" as="geometry">
            <mxPoint x="1" y="1" as="offset" />
          </mxGeometry>
        </mxCell>
        <mxCell id="QemC3yK7KwyKk4jSUFD0-20" value="encontro errores" style="rhombus;whiteSpace=wrap;html=1;" vertex="1" parent="1">
          <mxGeometry x="170" y="600" width="80" height="80" as="geometry" />
        </mxCell>
        <mxCell id="QemC3yK7KwyKk4jSUFD0-32" style="edgeStyle=orthogonalEdgeStyle;rounded=0;orthogonalLoop=1;jettySize=auto;html=1;entryX=0;entryY=0.75;entryDx=0;entryDy=0;" edge="1" parent="1" source="QemC3yK7KwyKk4jSUFD0-25" target="QemC3yK7KwyKk4jSUFD0-28">
          <mxGeometry relative="1" as="geometry" />
        </mxCell>
        <mxCell id="QemC3yK7KwyKk4jSUFD0-25" value="COLABORADOR 1" style="shape=umlActor;verticalLabelPosition=bottom;verticalAlign=top;html=1;outlineConnect=0;" vertex="1" parent="1">
          <mxGeometry x="570" y="357.5" width="30" height="60" as="geometry" />
        </mxCell>
        <mxCell id="QemC3yK7KwyKk4jSUFD0-33" style="edgeStyle=orthogonalEdgeStyle;rounded=0;orthogonalLoop=1;jettySize=auto;html=1;" edge="1" parent="1" source="QemC3yK7KwyKk4jSUFD0-26" target="QemC3yK7KwyKk4jSUFD0-29">
          <mxGeometry relative="1" as="geometry" />
        </mxCell>
        <mxCell id="QemC3yK7KwyKk4jSUFD0-26" value="COLABORADOR 2" style="shape=umlActor;verticalLabelPosition=bottom;verticalAlign=top;html=1;outlineConnect=0;" vertex="1" parent="1">
          <mxGeometry x="570" y="560" width="30" height="60" as="geometry" />
        </mxCell>
        <mxCell id="QemC3yK7KwyKk4jSUFD0-34" style="edgeStyle=orthogonalEdgeStyle;rounded=0;orthogonalLoop=1;jettySize=auto;html=1;entryX=0;entryY=0.5;entryDx=0;entryDy=0;" edge="1" parent="1" target="QemC3yK7KwyKk4jSUFD0-30">
          <mxGeometry relative="1" as="geometry">
            <mxPoint x="780" y="790" as="sourcePoint" />
          </mxGeometry>
        </mxCell>
        <mxCell id="QemC3yK7KwyKk4jSUFD0-27" value="COLABORADOR 3" style="shape=umlActor;verticalLabelPosition=bottom;verticalAlign=top;html=1;outlineConnect=0;" vertex="1" parent="1">
          <mxGeometry x="740" y="760" width="30" height="60" as="geometry" />
        </mxCell>
        <mxCell id="QemC3yK7KwyKk4jSUFD0-28" value="DEV" style="whiteSpace=wrap;html=1;rounded=0;shadow=1;labelBackgroundColor=none;strokeWidth=1;fontFamily=Verdana;fontSize=8;align=center;" vertex="1" parent="1">
          <mxGeometry x="680" y="357.5" width="120" height="40" as="geometry" />
        </mxCell>
        <mxCell id="QemC3yK7KwyKk4jSUFD0-40" style="edgeStyle=orthogonalEdgeStyle;rounded=0;orthogonalLoop=1;jettySize=auto;html=1;entryX=0.5;entryY=1;entryDx=0;entryDy=0;" edge="1" parent="1" source="QemC3yK7KwyKk4jSUFD0-29" target="60e70716793133e9-5">
          <mxGeometry relative="1" as="geometry" />
        </mxCell>
        <mxCell id="QemC3yK7KwyKk4jSUFD0-56" style="edgeStyle=orthogonalEdgeStyle;rounded=0;orthogonalLoop=1;jettySize=auto;html=1;" edge="1" parent="1" source="QemC3yK7KwyKk4jSUFD0-29">
          <mxGeometry relative="1" as="geometry">
            <mxPoint x="740" y="400" as="targetPoint" />
          </mxGeometry>
        </mxCell>
        <mxCell id="QemC3yK7KwyKk4jSUFD0-29" value="PRODUC MANAGER" style="whiteSpace=wrap;html=1;rounded=0;shadow=1;labelBackgroundColor=none;strokeWidth=1;fontFamily=Verdana;fontSize=8;align=center;spacing=6;" vertex="1" parent="1">
          <mxGeometry x="680" y="570" width="120" height="40" as="geometry" />
        </mxCell>
        <mxCell id="QemC3yK7KwyKk4jSUFD0-57" style="edgeStyle=orthogonalEdgeStyle;rounded=0;orthogonalLoop=1;jettySize=auto;html=1;entryX=0.5;entryY=1;entryDx=0;entryDy=0;" edge="1" parent="1" source="QemC3yK7KwyKk4jSUFD0-30" target="QemC3yK7KwyKk4jSUFD0-55">
          <mxGeometry relative="1" as="geometry" />
        </mxCell>
        <mxCell id="QemC3yK7KwyKk4jSUFD0-30" value="TESTER" style="whiteSpace=wrap;html=1;rounded=0;shadow=1;labelBackgroundColor=none;strokeWidth=1;fontFamily=Verdana;fontSize=8;align=center;spacing=6;" vertex="1" parent="1">
          <mxGeometry x="835" y="770" width="120" height="40" as="geometry" />
        </mxCell>
        <mxCell id="QemC3yK7KwyKk4jSUFD0-61" style="edgeStyle=orthogonalEdgeStyle;rounded=0;orthogonalLoop=1;jettySize=auto;html=1;entryX=0.5;entryY=0;entryDx=0;entryDy=0;" edge="1" parent="1" source="QemC3yK7KwyKk4jSUFD0-44" target="QemC3yK7KwyKk4jSUFD0-54">
          <mxGeometry relative="1" as="geometry" />
        </mxCell>
        <mxCell id="QemC3yK7KwyKk4jSUFD0-87" style="edgeStyle=orthogonalEdgeStyle;rounded=0;orthogonalLoop=1;jettySize=auto;html=1;entryX=0.25;entryY=1;entryDx=0;entryDy=0;" edge="1" parent="1" source="QemC3yK7KwyKk4jSUFD0-44" target="QemC3yK7KwyKk4jSUFD0-86">
          <mxGeometry relative="1" as="geometry" />
        </mxCell>
        <mxCell id="QemC3yK7KwyKk4jSUFD0-44" value="VERSION 0.1" style="rounded=1;whiteSpace=wrap;html=1;" vertex="1" parent="1">
          <mxGeometry x="1263.33" y="464" width="130" height="20" as="geometry" />
        </mxCell>
        <mxCell id="QemC3yK7KwyKk4jSUFD0-63" style="edgeStyle=orthogonalEdgeStyle;rounded=0;orthogonalLoop=1;jettySize=auto;html=1;entryX=0.5;entryY=0;entryDx=0;entryDy=0;" edge="1" parent="1" source="QemC3yK7KwyKk4jSUFD0-45" target="QemC3yK7KwyKk4jSUFD0-60">
          <mxGeometry relative="1" as="geometry" />
        </mxCell>
        <mxCell id="QemC3yK7KwyKk4jSUFD0-45" value="VERSION 0.2" style="rounded=1;whiteSpace=wrap;html=1;" vertex="1" parent="1">
          <mxGeometry x="1263.33" y="604" width="130" height="20" as="geometry" />
        </mxCell>
        <mxCell id="QemC3yK7KwyKk4jSUFD0-59" style="edgeStyle=orthogonalEdgeStyle;rounded=0;orthogonalLoop=1;jettySize=auto;html=1;" edge="1" parent="1" source="QemC3yK7KwyKk4jSUFD0-46" target="QemC3yK7KwyKk4jSUFD0-50">
          <mxGeometry relative="1" as="geometry" />
        </mxCell>
        <mxCell id="QemC3yK7KwyKk4jSUFD0-46" value="VERSION 0.3" style="rounded=1;whiteSpace=wrap;html=1;" vertex="1" parent="1">
          <mxGeometry x="1263.33" y="754" width="130" height="20" as="geometry" />
        </mxCell>
        <mxCell id="QemC3yK7KwyKk4jSUFD0-74" style="edgeStyle=orthogonalEdgeStyle;rounded=0;orthogonalLoop=1;jettySize=auto;html=1;exitX=0.5;exitY=1;exitDx=0;exitDy=0;entryX=0.5;entryY=0;entryDx=0;entryDy=0;" edge="1" parent="1" source="QemC3yK7KwyKk4jSUFD0-49" target="QemC3yK7KwyKk4jSUFD0-71">
          <mxGeometry relative="1" as="geometry" />
        </mxCell>
        <mxCell id="QemC3yK7KwyKk4jSUFD0-49" value="USO DE BRANCH" style="shape=trapezoid;whiteSpace=wrap;html=1;rounded=0;shadow=1;labelBackgroundColor=none;strokeWidth=1;fontFamily=Verdana;fontSize=8;align=center;flipV=1;fillColor=#FF3333;strokeColor=#FFFFFF;" vertex="1" parent="1">
          <mxGeometry x="1050" y="418.75" width="90" height="40" as="geometry" />
        </mxCell>
        <mxCell id="QemC3yK7KwyKk4jSUFD0-50" value="End" style="strokeWidth=1;html=1;shape=mxgraph.flowchart.terminator;whiteSpace=wrap;rounded=0;shadow=1;labelBackgroundColor=none;fontFamily=Verdana;fontSize=8;align=center;" vertex="1" parent="1">
          <mxGeometry x="1553.33" y="749" width="60" height="30" as="geometry" />
        </mxCell>
        <mxCell id="QemC3yK7KwyKk4jSUFD0-62" style="edgeStyle=orthogonalEdgeStyle;rounded=0;orthogonalLoop=1;jettySize=auto;html=1;exitX=0.5;exitY=1;exitDx=0;exitDy=0;entryX=0.5;entryY=0;entryDx=0;entryDy=0;" edge="1" parent="1" source="QemC3yK7KwyKk4jSUFD0-54" target="QemC3yK7KwyKk4jSUFD0-45">
          <mxGeometry relative="1" as="geometry" />
        </mxCell>
        <mxCell id="QemC3yK7KwyKk4jSUFD0-66" value="NO" style="edgeLabel;html=1;align=center;verticalAlign=middle;resizable=0;points=[];" vertex="1" connectable="0" parent="QemC3yK7KwyKk4jSUFD0-62">
          <mxGeometry x="-0.3412" y="3" relative="1" as="geometry">
            <mxPoint as="offset" />
          </mxGeometry>
        </mxCell>
        <mxCell id="QemC3yK7KwyKk4jSUFD0-68" style="edgeStyle=orthogonalEdgeStyle;rounded=0;orthogonalLoop=1;jettySize=auto;html=1;entryX=1;entryY=0;entryDx=0;entryDy=0;" edge="1" parent="1" source="QemC3yK7KwyKk4jSUFD0-54" target="QemC3yK7KwyKk4jSUFD0-55">
          <mxGeometry relative="1" as="geometry">
            <Array as="points">
              <mxPoint x="1240" y="549" />
              <mxPoint x="1240" y="650" />
              <mxPoint x="950" y="650" />
            </Array>
          </mxGeometry>
        </mxCell>
        <mxCell id="QemC3yK7KwyKk4jSUFD0-69" value="SI" style="edgeLabel;html=1;align=center;verticalAlign=middle;resizable=0;points=[];" vertex="1" connectable="0" parent="QemC3yK7KwyKk4jSUFD0-68">
          <mxGeometry x="-0.4724" relative="1" as="geometry">
            <mxPoint as="offset" />
          </mxGeometry>
        </mxCell>
        <mxCell id="QemC3yK7KwyKk4jSUFD0-54" value="&lt;font style=&quot;font-size: 6px;&quot;&gt;BUG&lt;/font&gt;" style="rhombus;whiteSpace=wrap;html=1;rounded=0;shadow=1;labelBackgroundColor=none;strokeWidth=1;fontFamily=Verdana;fontSize=8;align=center;" vertex="1" parent="1">
          <mxGeometry x="1305.83" y="524" width="45" height="50" as="geometry" />
        </mxCell>
        <mxCell id="QemC3yK7KwyKk4jSUFD0-58" style="edgeStyle=orthogonalEdgeStyle;rounded=0;orthogonalLoop=1;jettySize=auto;html=1;entryX=0.5;entryY=1;entryDx=0;entryDy=0;" edge="1" parent="1" source="QemC3yK7KwyKk4jSUFD0-55" target="QemC3yK7KwyKk4jSUFD0-29">
          <mxGeometry relative="1" as="geometry" />
        </mxCell>
        <mxCell id="QemC3yK7KwyKk4jSUFD0-79" style="edgeStyle=orthogonalEdgeStyle;rounded=0;orthogonalLoop=1;jettySize=auto;html=1;entryX=0;entryY=0.5;entryDx=0;entryDy=0;" edge="1" parent="1" source="QemC3yK7KwyKk4jSUFD0-55" target="QemC3yK7KwyKk4jSUFD0-49">
          <mxGeometry relative="1" as="geometry">
            <Array as="points">
              <mxPoint x="895" y="610" />
              <mxPoint x="970" y="610" />
              <mxPoint x="970" y="439" />
            </Array>
          </mxGeometry>
        </mxCell>
        <mxCell id="QemC3yK7KwyKk4jSUFD0-55" value="SOLICITA CAMBIOS" style="shape=trapezoid;whiteSpace=wrap;html=1;rounded=0;shadow=1;labelBackgroundColor=none;strokeWidth=1;fontFamily=Verdana;fontSize=8;align=center;flipV=1;" vertex="1" parent="1">
          <mxGeometry x="840" y="680" width="110" height="40" as="geometry" />
        </mxCell>
        <mxCell id="QemC3yK7KwyKk4jSUFD0-64" style="edgeStyle=orthogonalEdgeStyle;rounded=0;orthogonalLoop=1;jettySize=auto;html=1;exitX=0.5;exitY=1;exitDx=0;exitDy=0;entryX=0.5;entryY=0;entryDx=0;entryDy=0;" edge="1" parent="1" source="QemC3yK7KwyKk4jSUFD0-60" target="QemC3yK7KwyKk4jSUFD0-46">
          <mxGeometry relative="1" as="geometry" />
        </mxCell>
        <mxCell id="QemC3yK7KwyKk4jSUFD0-65" value="NO" style="edgeLabel;html=1;align=center;verticalAlign=middle;resizable=0;points=[];" vertex="1" connectable="0" parent="QemC3yK7KwyKk4jSUFD0-64">
          <mxGeometry x="-0.2047" y="3" relative="1" as="geometry">
            <mxPoint as="offset" />
          </mxGeometry>
        </mxCell>
        <mxCell id="QemC3yK7KwyKk4jSUFD0-67" style="edgeStyle=orthogonalEdgeStyle;rounded=0;orthogonalLoop=1;jettySize=auto;html=1;entryX=1;entryY=0.5;entryDx=0;entryDy=0;" edge="1" parent="1" source="QemC3yK7KwyKk4jSUFD0-60" target="QemC3yK7KwyKk4jSUFD0-55">
          <mxGeometry relative="1" as="geometry" />
        </mxCell>
        <mxCell id="QemC3yK7KwyKk4jSUFD0-70" value="SI" style="edgeLabel;html=1;align=center;verticalAlign=middle;resizable=0;points=[];" vertex="1" connectable="0" parent="QemC3yK7KwyKk4jSUFD0-67">
          <mxGeometry x="-0.2706" y="-2" relative="1" as="geometry">
            <mxPoint as="offset" />
          </mxGeometry>
        </mxCell>
        <mxCell id="QemC3yK7KwyKk4jSUFD0-84" style="edgeStyle=orthogonalEdgeStyle;rounded=0;orthogonalLoop=1;jettySize=auto;html=1;" edge="1" parent="1" source="QemC3yK7KwyKk4jSUFD0-60">
          <mxGeometry relative="1" as="geometry">
            <mxPoint x="1530" y="570" as="targetPoint" />
          </mxGeometry>
        </mxCell>
        <mxCell id="QemC3yK7KwyKk4jSUFD0-85" value="SI" style="edgeLabel;html=1;align=center;verticalAlign=middle;resizable=0;points=[];" vertex="1" connectable="0" parent="QemC3yK7KwyKk4jSUFD0-84">
          <mxGeometry x="-0.5716" y="-1" relative="1" as="geometry">
            <mxPoint as="offset" />
          </mxGeometry>
        </mxCell>
        <mxCell id="QemC3yK7KwyKk4jSUFD0-60" value="&lt;font style=&quot;font-size: 6px;&quot;&gt;BUG&lt;/font&gt;" style="rhombus;whiteSpace=wrap;html=1;rounded=0;shadow=1;labelBackgroundColor=none;strokeWidth=1;fontFamily=Verdana;fontSize=8;align=center;" vertex="1" parent="1">
          <mxGeometry x="1305.83" y="654" width="45" height="50" as="geometry" />
        </mxCell>
        <mxCell id="QemC3yK7KwyKk4jSUFD0-75" style="edgeStyle=orthogonalEdgeStyle;rounded=0;orthogonalLoop=1;jettySize=auto;html=1;exitX=0.5;exitY=1;exitDx=0;exitDy=0;entryX=0.5;entryY=0;entryDx=0;entryDy=0;" edge="1" parent="1" source="QemC3yK7KwyKk4jSUFD0-71" target="QemC3yK7KwyKk4jSUFD0-72">
          <mxGeometry relative="1" as="geometry" />
        </mxCell>
        <mxCell id="QemC3yK7KwyKk4jSUFD0-71" value="ADD&amp;nbsp;" style="shape=trapezoid;whiteSpace=wrap;html=1;rounded=0;shadow=1;labelBackgroundColor=none;strokeWidth=1;fontFamily=Verdana;fontSize=8;align=center;flipV=1;" vertex="1" parent="1">
          <mxGeometry x="1050" y="480" width="90" height="40" as="geometry" />
        </mxCell>
        <mxCell id="QemC3yK7KwyKk4jSUFD0-76" style="edgeStyle=orthogonalEdgeStyle;rounded=0;orthogonalLoop=1;jettySize=auto;html=1;exitX=0.5;exitY=1;exitDx=0;exitDy=0;entryX=0.5;entryY=0;entryDx=0;entryDy=0;" edge="1" parent="1" source="QemC3yK7KwyKk4jSUFD0-72" target="QemC3yK7KwyKk4jSUFD0-73">
          <mxGeometry relative="1" as="geometry" />
        </mxCell>
        <mxCell id="QemC3yK7KwyKk4jSUFD0-72" value="COMMIT" style="shape=trapezoid;whiteSpace=wrap;html=1;rounded=0;shadow=1;labelBackgroundColor=none;strokeWidth=1;fontFamily=Verdana;fontSize=8;align=center;flipV=1;" vertex="1" parent="1">
          <mxGeometry x="1050" y="540" width="90" height="40" as="geometry" />
        </mxCell>
        <mxCell id="QemC3yK7KwyKk4jSUFD0-78" style="edgeStyle=orthogonalEdgeStyle;rounded=0;orthogonalLoop=1;jettySize=auto;html=1;exitX=1;exitY=0.5;exitDx=0;exitDy=0;entryX=0;entryY=0.5;entryDx=0;entryDy=0;" edge="1" parent="1" source="QemC3yK7KwyKk4jSUFD0-73" target="QemC3yK7KwyKk4jSUFD0-44">
          <mxGeometry relative="1" as="geometry" />
        </mxCell>
        <mxCell id="QemC3yK7KwyKk4jSUFD0-73" value="PUSH" style="shape=trapezoid;whiteSpace=wrap;html=1;rounded=0;shadow=1;labelBackgroundColor=none;strokeWidth=1;fontFamily=Verdana;fontSize=8;align=center;flipV=1;" vertex="1" parent="1">
          <mxGeometry x="1050" y="594" width="90" height="40" as="geometry" />
        </mxCell>
        <mxCell id="QemC3yK7KwyKk4jSUFD0-83" value="VERSION 0.1.1" style="rounded=1;whiteSpace=wrap;html=1;" vertex="1" parent="1">
          <mxGeometry x="1460" y="550" width="130" height="20" as="geometry" />
        </mxCell>
        <mxCell id="QemC3yK7KwyKk4jSUFD0-86" value="&lt;font style=&quot;font-size: 10px;&quot;&gt;SERVIDORES EN LA NUVE&lt;/font&gt;" style="whiteSpace=wrap;html=1;rounded=0;shadow=1;labelBackgroundColor=none;strokeWidth=1;fontFamily=Verdana;fontSize=8;align=center;fillColor=#FFB366;" vertex="1" parent="1">
          <mxGeometry x="1490" y="335" width="200" height="82.5" as="geometry" />
        </mxCell>
        <mxCell id="QemC3yK7KwyKk4jSUFD0-90" value="&lt;h1&gt;BRANCH&lt;/h1&gt;&lt;p&gt;El uso del branch genera la primera linea de seguridad y la comunicacion del equipo a cualquier cambio.&lt;/p&gt;" style="text;html=1;spacing=5;spacingTop=-20;whiteSpace=wrap;overflow=hidden;rounded=0;" vertex="1" parent="1">
          <mxGeometry x="1030" y="70" width="190" height="120" as="geometry" />
        </mxCell>
        <mxCell id="QemC3yK7KwyKk4jSUFD0-91" value="&lt;h1&gt;VERSIONES&lt;/h1&gt;&lt;p&gt;El uso de controlador de versiones ayuda a evitar errores de producion gracias a una colaboracion en la nube (GitHub, GitLab etc)&lt;/p&gt;" style="text;html=1;spacing=5;spacingTop=-20;whiteSpace=wrap;overflow=hidden;rounded=0;" vertex="1" parent="1">
          <mxGeometry x="1220" y="70" width="190" height="120" as="geometry" />
        </mxCell>
        <mxCell id="QemC3yK7KwyKk4jSUFD0-92" value="&lt;h1&gt;SERVIDORES&lt;/h1&gt;&lt;p&gt;Los servidores en la nueve ayuda a reducir costos y asegura en gran parte el sistema de proteccion.&lt;/p&gt;" style="text;html=1;spacing=5;spacingTop=-20;whiteSpace=wrap;overflow=hidden;rounded=0;" vertex="1" parent="1">
          <mxGeometry x="1420" y="70" width="190" height="120" as="geometry" />
        </mxCell>
      </root>
    </mxGraphModel>
  </diagram>
</mxfile>
